Results
version=1
nRows=19
nColumns=24
inDegrees=yes
endheader
time	pelvis_tilt	pelvis_list	pelvis_rotation	pelvis_tx	pelvis_ty	pelvis_tz	hip_flexion_r	hip_adduction_r	hip_rotation_r	knee_angle_r	ankle_angle_r	subtalar_angle_r	mtp_angle_r	hip_flexion_l	hip_adduction_l	hip_rotation_l	knee_angle_l	ankle_angle_l	subtalar_angle_l	mtp_angle_l	lumbar_extension	lumbar_bending	lumbar_rotation
      0.58300000	     -4.92524304	      3.23368434	      7.25075409	     -0.92185994	      1.00053290	      0.31010785	     30.68285622	     -4.42034182	    -14.41171980	     -0.72137611	      3.03124863	      7.08628712	     13.08459369	     -9.81208344	      7.58719289	     10.21354612	     -6.64172797	     14.51983397	     -1.72275168	      1.48263942	      0.03963888	     -7.06311666	     -6.16706413
      0.58716667	     -4.86587177	      3.14947211	      7.28657460	     -0.91627492	      0.99987311	      0.31019005	     30.71523880	     -4.28713670	    -14.16133583	     -1.37896213	      3.07595783	      6.74701677	     13.09005180	    -10.00389610	      7.47694848	     10.32860309	     -7.07045981	     14.67859744	     -1.82814678	      1.48853114	      0.02512980	     -6.93896034	     -6.16989008
      0.59133333	     -4.80824902	      3.06573576	      7.28880015	     -0.91063540	      0.99922016	      0.31036081	     30.71761812	     -4.11730049	    -13.67594726	     -1.98871350	      2.87812795	      5.95824059	     13.09853641	    -10.20654546	      7.36995161	     10.44891808	     -7.47104655	     14.75499317	     -1.96209581	      1.49262493	     -0.00845604	     -6.83136365	     -6.15562168
      0.59550000	     -4.75899426	      2.97583912	      7.29668392	     -0.90497061	      0.99859479	      0.31050220	     30.73846114	     -3.95179392	    -13.24069051	     -2.65626280	      2.71329144	      5.28317423	     13.11040148	    -10.37656681	      7.26396528	     10.56074759	     -7.92444402	     14.84318228	     -2.10326216	      1.49814090	     -0.00960914	     -6.70553194	     -6.13679014
      0.59966667	     -4.68018902	      2.88286467	      7.28445829	     -0.89924781	      0.99803049	      0.31068127	     30.72485850	     -3.76741297	    -12.76487559	     -3.33950562	      2.52355578	      4.57648207	     13.12321297	    -10.58597887	      7.15439389	     10.67714951	     -8.36282477	     14.91918339	     -2.25317346	      1.50594751	     -0.04047976	     -6.56487511	     -6.11387895
      0.60383333	     -4.61815908	      2.77963770	      7.27651174	     -0.89346237	      0.99748907	      0.31086772	     30.71126562	     -3.56913157	    -12.27316130	     -3.99939720	      2.20724536	      3.76137863	     13.13824816	    -10.75486996	      7.03790343	     10.74895878	     -8.84830184	     14.93787304	     -2.41493388	      1.51806712	     -0.03787128	     -6.42422607	     -6.07903001
      0.60800000	     -4.55370683	      2.67342605	      7.24837856	     -0.88763850	      0.99696998	      0.31109473	     30.69595999	     -3.35374718	    -11.73640510	     -4.67069753	      1.88804453	      2.94520050	     13.15304720	    -10.92987511	      6.92308548	     10.83813955	     -9.33471017	     14.97171426	     -2.57288883	      1.53430356	     -0.03441397	     -6.27167776	     -6.04806570
      0.61216667	     -4.49364722	      2.56581730	      7.21909024	     -0.88177495	      0.99649294	      0.31134048	     30.67542103	     -3.13118545	    -11.19320087	     -5.32401626	      1.46358554	      2.06070251	     13.16906814	    -11.07805393	      6.81035914	     10.90015322	     -9.86359793	     14.94988046	     -2.73776432	      1.55726414	     -0.01972433	     -6.12473886	     -6.00483555
      0.61633333	     -4.42085915	      2.45244999	      7.18632202	     -0.87586772	      0.99607059	      0.31161959	     30.63312343	     -2.89519866	    -10.65276859	     -5.96234354	      0.98661481	      1.16356451	     13.18939748	    -11.23682105	      6.68751927	     10.93824218	    -10.39635778	     14.89752737	     -2.88485923	      1.59312492	     -0.01816954	     -5.97453029	     -5.95319972
      0.62050000	     -4.37188878	      2.33521371	      7.13540671	     -0.86990682	      0.99564749	      0.31192484	     30.61376918	     -2.64521118	    -10.07803531	     -6.59405399	      0.47078708	      0.26187574	     13.20666671	    -11.35748523	      6.57227396	     10.97526185	    -10.95998171	     14.83375932	     -3.04564843	      1.63416485	      0.02650220	     -5.80923494	     -5.90730979
      0.62466667	     -4.31900871	      2.21444862	      7.09421299	     -0.86392029	      0.99528502	      0.31224479	     30.58120376	     -2.39348072	     -9.53315855	     -7.20769429	     -0.10877872	     -0.64932069	     13.22391662	    -11.46908967	      6.44926162	     10.99517401	    -11.54320147	     14.72403992	     -3.18377957	      1.68834597	      0.06637064	     -5.64977714	     -5.85361307
      0.62883333	     -4.27556141	      2.08569067	      7.04280120	     -0.85788268	      0.99494233	      0.31259655	     30.55279461	     -2.12654438	     -8.98332106	     -7.80507711	     -0.72822877	     -1.55939191	     13.24237962	    -11.56092065	      6.32083685	     10.99017544	    -12.15181882	     14.59137006	     -3.30813257	      1.75665507	      0.13099015	     -5.48491730	     -5.79461328
      0.63300000	     -4.22301986	      1.95779481	      6.99180574	     -0.85181181	      0.99466132	      0.31296412	     30.51000436	     -1.86018715	     -8.46106305	     -8.39458758	     -1.36499705	     -2.43578465	     13.26189652	    -11.64884771	      6.19300999	     10.98314790	    -12.78251213	     14.41889398	     -3.42758719	      1.84366883	      0.18389662	     -5.32348196	     -5.72976175
      0.63716667	     -4.16467889	      1.82842796	      6.94617905	     -0.84572680	      0.99443412	      0.31335244	     30.45696409	     -1.59335664	     -7.96013820	     -8.97660263	     -2.00368597	     -3.31077494	     13.28754576	    -11.72213083	      6.05999257	     10.94410842	    -13.44877249	     14.22565725	     -3.51858949	      1.97525208	      0.22633596	     -5.16776110	     -5.65233380
      0.64133333	     -4.14647446	      1.67705015	      6.88943338	     -0.83956428	      0.99419647	      0.31374853	     30.44212579	     -1.30824661	     -7.48955685	     -9.54964887	     -2.66585110	     -4.06262708	     13.30270071	    -11.74883041	      5.91124959	     10.88629442	    -14.12464124	     13.96842646	     -3.59764109	      2.09635936	      0.34392237	     -4.96721551	     -5.60526835
      0.64550000	     -4.11424078	      1.53010281	      6.84220878	     -0.83339265	      0.99402890	      0.31415882	     30.40760606	     -1.03076054	     -7.04396320	    -10.11966758	     -3.30609010	     -4.82242721	     13.31486992	    -11.76028894	      5.76289226	     10.79999896	    -14.85235095	     13.69770233	     -3.65838844	      2.24102330	      0.43435718	     -4.78910019	     -5.54499273
      0.64966667	     -4.07482768	      1.37963307	      6.79842448	     -0.82720767	      0.99390030	      0.31460321	     30.36414725	     -0.75180165	     -6.63132602	    -10.68944401	     -3.92856526	     -5.57856340	     13.58397597	    -11.75062356	      5.59735409	     10.61704966	    -15.62376572	     13.40397969	     -3.57593037	      4.81147476	      0.52666639	     -4.62861886	     -5.43531247
      0.65383333	     -4.02382397	      1.21856349	      6.75133500	     -0.82097924	      0.99385869	      0.31502255	     30.30276714	     -0.46763223	     -6.25585137	    -11.25851592	     -4.48678414	     -6.20194632	     13.56814127	    -11.75912232	      5.43266399	     10.53211286	    -16.38126309	     13.01148705	     -3.69914208	      4.86324053	      0.59744956	     -4.42121679	     -5.40949370
      0.65800000	     -3.99949974	      1.05147843	      6.71134650	     -0.81471855	      0.99382453	      0.31545297	     30.26756612	     -0.18741168	     -5.91410926	    -11.83453799	     -5.00938194	     -6.77663670	     13.54635695	    -11.71517589	      5.25534975	     10.37958047	    -17.17781697	     12.60892698	     -3.70542537	      4.95517757	      0.71366965	     -4.21846992	     -5.35745347
